<?xml version="1.0" encoding="UTF-8"?>
<svg width="28px" height="28px" viewBox="0 0 28 28" version="1.1" xmlns="http://www.w3.org/2000/svg" xmlns:xlink="http://www.w3.org/1999/xlink">
    <title>iconHealth</title>
    <g id="Page-1" stroke="none" stroke-width="1" fill="none" fill-rule="evenodd">
        <g id="iPhone-13" transform="translate(-138.000000, -56.000000)" fill="#388D65" fill-rule="nonzero">
            <g id="iconHealth" transform="translate(138.000000, 56.000000)">
                <path d="M6.52380952,0 C2.95238095,0 0,2.79225352 0,6.22535211 L0,13 L13,13 L13,6.22535211 C13,2.79225352 10.0952381,0 6.52380952,0 Z" id="Path"></path>
                <path d="M0,21.4117647 C0,25.0449827 2.89416058,28 6.5,28 C10.0583942,28 13,25.0449827 13,21.4117647 L13,14 L0,14 L0,21.4117647 Z M2.1350365,16.1314879 L2.89416058,16.1314879 L2.89416058,21.3148789 C2.89416058,22.2352941 3.32116788,23.1557093 4.08029197,23.6885813 L3.65328467,24.3183391 C2.70437956,23.6401384 2.1350365,22.4775087 2.1350365,21.3148789 L2.1350365,16.1314879 L2.1350365,16.1314879 Z" id="Shape"></path>
                <path d="M21,15 C17.2569444,15 14.1944444,17.6470588 14,21 L28,21 C27.8055556,17.6470588 24.7430556,15 21,15 Z" id="Path"></path>
                <path d="M21,28 C24.7430556,28 27.8055556,25.3529412 28,22 L14,22 C14.1944444,25.3529412 17.2569444,28 21,28 Z" id="Path"></path>
            </g>
        </g>
    </g>
</svg>