<?xml version="1.0" encoding="UTF-8"?>
<svg width="28px" height="24px" viewBox="0 0 28 24" version="1.1" xmlns="http://www.w3.org/2000/svg" xmlns:xlink="http://www.w3.org/1999/xlink">
    <title>iconClothes</title>
    <g id="Page-1" stroke="none" stroke-width="1" fill="none" fill-rule="evenodd">
        <g id="iPhone-13" transform="translate(-283.000000, -58.000000)" fill="#388D65" fill-rule="nonzero">
            <g id="iconClothes" transform="translate(283.000000, 58.000000)">
                <path d="M27.8599952,6.75854003 L21.2414708,0.140006014 C21.1963336,0.0952645963 21.1428447,0.0598644219 21.0840455,0.0358427026 C21.0251981,0.0118161557 20.9622473,-0.000358839474 20.8987172,8.57539096e-16 L17.8960023,8.57539096e-16 C17.7679283,8.57539096e-16 17.6451646,0.0508707597 17.5546486,0.141401166 C17.4640844,0.2319364 17.4132507,0.354724268 17.4132507,0.482759646 C17.4132507,1.38797682 17.053649,2.25606073 16.4135687,2.89614107 C15.7734883,3.53622141 14.9053562,3.89582307 14.0001969,3.89582307 C13.0949894,3.89582307 12.2268572,3.53622141 11.5867769,2.89614107 C10.9466965,2.25606073 10.5871431,1.38797682 10.5871431,0.482759646 C10.5871431,0.354724268 10.5362611,0.2319364 10.4457452,0.141401166 C10.355181,0.0508707597 10.2324173,8.57539096e-16 10.1043916,8.57539096e-16 L7.10167663,8.57539096e-16 C7.03814653,-0.000358839474 6.97514744,0.0118161557 6.9163483,0.0358427026 C6.85750088,0.0598644219 6.804012,0.0952645963 6.758923,0.140006014 L0.140379336,6.75854003 C0.0504668517,6.8489594 4.28769548e-16,6.97133693 4.28769548e-16,7.0988799 C4.28769548e-16,7.22642287 0.0504668517,7.34875212 0.140379336,7.43921977 L4.06034159,11.3591627 C4.15076096,11.4490511 4.27313849,11.4995469 4.40068147,11.4995469 C4.52817616,11.4995469 4.65055369,11.4490511 4.74102134,11.3591627 L6.61892504,9.48125902 L6.61892504,23.0272688 C6.61892504,23.1552945 6.66975878,23.2781065 6.76032298,23.3686224 C6.85083891,23.4591383 6.97360264,23.5100203 7.10167663,23.5100203 L20.8987172,23.5100203 C21.0267429,23.5100203 21.1495067,23.4591383 21.2400708,23.3686224 C21.3305868,23.2781065 21.3814688,23.1552945 21.3814688,23.0272688 L21.3814688,9.48125902 L23.2593725,11.3591627 C23.3497919,11.4490511 23.4721694,11.4995469 23.5997124,11.4995469 C23.7272071,11.4995469 23.8495846,11.4490511 23.9400522,11.3591627 L27.8599952,7.43921977 C27.904698,7.3940825 27.940132,7.34059362 27.9641247,7.28179448 C27.9881657,7.22294706 28.0003311,7.15999625 28,7.09646614 C27.9994621,6.96979212 27.9491594,6.84842837 27.8599952,6.75854003 Z" id="Path"></path>
            </g>
        </g>
    </g>
</svg>