<?xml version="1.0" encoding="UTF-8"?>
<svg width="28px" height="28px" viewBox="0 0 28 28" version="1.1" xmlns="http://www.w3.org/2000/svg" xmlns:xlink="http://www.w3.org/1999/xlink">
    <title>iconHouse</title>
    <g id="Page-1" stroke="none" stroke-width="1" fill="none" fill-rule="evenodd">
        <g id="iPhone-13" transform="translate(-217.000000, -56.000000)" fill="#388D65" fill-rule="nonzero">
            <g id="iconHouse" transform="translate(217.000000, 56.000000)">
                <path d="M27.8139914,12.037157 L24.7168065,9.29699748 C24.713147,9.29383704 24.7099867,9.29123106 24.7063273,9.28807061 L14.3645794,0.138310965 C14.1554944,-0.046103655 13.8417839,-0.046103655 13.6333088,0.138310965 L3.28645998,9.29383704 L0.186003731,12.037157 C-0.0419881159,12.2388709 -0.0635009652,12.587684 0.13870873,12.8156794 C0.340419415,13.0442294 0.689282426,13.0651881 0.917274273,12.8635297 L3.10581858,10.9271207 L3.10581858,27.4484195 C3.10581858,27.5951306 3.16409178,27.7352436 3.26760851,27.8387065 C3.37106979,27.9422249 3.51134688,28 3.65739029,28 L10.8943017,27.9957861 C11.1990301,27.9957861 11.4458734,27.7488834 11.4458734,27.4442056 L11.4458734,19.2074259 L16.5541771,19.2074259 L16.5541771,27.4484195 C16.5541771,27.7530973 16.8015749,28 17.105638,28 L24.342494,28 C24.6466679,28 24.8940657,27.7530973 24.8940657,27.4484195 L24.8940657,10.9271207 L27.08261,12.8635297 C27.1877346,12.9565132 27.3179206,13.002201 27.448273,13.001702 C27.6006372,13.001702 27.7523915,12.9392139 27.8611755,12.8157349 C28.0635516,12.587684 28.0419833,12.2388709 27.8139914,12.037157 Z" id="Path"></path>
            </g>
        </g>
    </g>
</svg>