<?xml version="1.0" encoding="UTF-8"?>
<svg width="33px" height="22px" viewBox="0 0 33 22" version="1.1" xmlns="http://www.w3.org/2000/svg" xmlns:xlink="http://www.w3.org/1999/xlink">
    <title>money</title>
    <g id="Page-1" stroke="none" stroke-width="1" fill="none" fill-rule="evenodd">
        <g id="Home-#2" transform="translate(-304.000000, -90.000000)" fill="#388D65" fill-rule="nonzero">
            <g id="money" transform="translate(304.000000, 90.000000)">
                <path d="M19.25,11 C19.25,12.5187831 18.0187831,13.75 16.5,13.75 C14.9812169,13.75 13.75,12.5187831 13.75,11 C13.75,9.48121694 14.9812169,8.25 16.5,8.25 C18.0187831,8.25 19.25,9.48121694 19.25,11 Z M33,4.125 L33,22 L0,22 L0,4.125 C0,1.84682541 1.84682541,0 4.125,0 L28.875,0 C31.1531746,0 33,1.84682541 33,4.125 Z M6.875,16.5 C6.875,15.7406085 6.25939153,15.125 5.5,15.125 C4.74060847,15.125 4.125,15.7406085 4.125,16.5 C4.125,17.2593915 4.74060847,17.875 5.5,17.875 C6.25939153,17.875 6.875,17.2593915 6.875,16.5 Z M6.875,5.5 C6.875,4.74060847 6.25939153,4.125 5.5,4.125 C4.74060847,4.125 4.125,4.74060847 4.125,5.5 C4.125,6.25939153 4.74060847,6.875 5.5,6.875 C6.25939153,6.875 6.875,6.25939153 6.875,5.5 Z M22,11 C22,7.96243388 19.5375661,5.5 16.5,5.5 C13.4624339,5.5 11,7.96243388 11,11 C11,14.0375661 13.4624339,16.5 16.5,16.5 C19.5375661,16.5 22,14.0375661 22,11 Z M28.875,16.5 C28.875,15.7406085 28.2593915,15.125 27.5,15.125 C26.7406085,15.125 26.125,15.7406085 26.125,16.5 C26.125,17.2593915 26.7406085,17.875 27.5,17.875 C28.2593915,17.875 28.875,17.2593915 28.875,16.5 Z M28.875,5.5 C28.875,4.74060847 28.2593915,4.125 27.5,4.125 C26.7406085,4.125 26.125,4.74060847 26.125,5.5 C26.125,6.25939153 26.7406085,6.875 27.5,6.875 C28.2593915,6.875 28.875,6.25939153 28.875,5.5 Z" id="Shape"></path>
            </g>
        </g>
    </g>
</svg>