<?xml version="1.0" encoding="UTF-8"?>
<svg width="29px" height="23px" viewBox="0 0 29 23" version="1.1" xmlns="http://www.w3.org/2000/svg" xmlns:xlink="http://www.w3.org/1999/xlink">
    <title>iconDeposits</title>
    <g id="Page-1" stroke="none" stroke-width="1" fill="none" fill-rule="evenodd">
        <g id="iPhone-13" transform="translate(-85.000000, -244.000000)" fill="#388D65" fill-rule="nonzero">
            <g id="iconDeposits" transform="translate(85.000000, 244.000000)">
                <path d="M11.5,8 C8.16666667,8.06 8.16666667,12.94 11.5,13 C14.8333333,12.94 14.8333333,8.06 11.5,8 Z" id="Path"></path>
                <path d="M17.3772746,3 L4.64512123,3 C3.43681492,3 2.87759877,4.0985094 3.02239581,5.15327285 C3.29815165,5.15327285 3.52169594,5.37089205 3.52169594,5.63933895 L3.52169594,8.71127673 C3.52169594,8.97972363 3.29815165,9.19734284 3.02239581,9.19734284 L3.02239581,11.8026572 C3.29815165,11.8026572 3.52169594,12.0202764 3.52169594,12.2887233 L3.52169594,15.360661 C3.52169594,15.6291079 3.29815165,15.8467272 3.02239581,15.8467272 C2.87759877,16.9014906 3.43681492,18 4.64512123,18 L17.3772746,18 C18.2723431,17.9973312 18.9972586,17.2916297 19,16.4202852 L19,4.57971484 C18.9972586,3.70837026 18.2723431,3.00266876 17.3772746,3 Z M11.0111979,13.9024627 C6.40265769,13.7858069 6.40265769,7.21419313 11.0111979,7.09753727 C15.6197381,7.21419313 15.6197381,13.7858069 11.0111979,13.9024627 Z" id="Shape"></path>
                <path d="M26.375,0 L2.625,0 C1.17525253,0 0,1.17525253 0,2.625 L0,18.375 C0.055,20.375 1.765,21.2 3.59,21 C3.42792814,21.4584024 3.49809528,21.9669256 3.77825025,22.3643086 C4.05840522,22.7616915 4.51379208,22.9986349 5,23 L8.5,23 C8.98620792,22.9986349 9.44159478,22.7616915 9.72174975,22.3643086 C10.0019047,21.9669256 10.0720719,21.4584024 9.91,21 L19.09,21 C18.9279281,21.4584024 18.9980953,21.9669256 19.2782503,22.3643086 C19.5584052,22.7616915 20.0137921,22.9986349 20.5,23 L24,23 C24.4862079,22.9986349 24.9415948,22.7616915 25.2217497,22.3643086 C25.5019047,21.9669256 25.5720719,21.4584024 25.41,21 C27.225,21.205 28.95,20.39 29,18.375 L29,2.625 C29,1.17525253 27.8247475,0 26.375,0 Z M25.66,8.63 L25.915,8.38 C26.365,7.915 27.085,8.635 26.62,9.085 L26.37,9.34 C26.1739389,9.53606109 25.8560611,9.53606109 25.66,9.34 C25.4639389,9.14393891 25.4639389,8.82606109 25.66,8.63 L25.66,8.63 Z M24,8 C24,7.72385763 24.2238576,7.5 24.5,7.5 C24.7761424,7.5 25,7.72385763 25,8 L25,8.355 C25,8.63114237 24.7761424,8.855 24.5,8.855 C24.2238576,8.855 24,8.63114237 24,8.355 L24,8 Z M22.38,8.38 C22.705,8.045 23.11,8.345 23.34,8.63 C23.4346563,8.7238833 23.4878992,8.85168123 23.4878992,8.985 C23.4878992,9.11831877 23.4346563,9.2461167 23.34,9.34 C23.015,9.675 22.605,9.37 22.38,9.085 C22.1861382,8.88998127 22.1861382,8.57501873 22.38,8.38 Z M20.5,16.59 C20.4972486,18.0386063 19.3236063,19.2122486 17.875,19.2151046 L5.125,19.2151046 C3.405,19.23 2.29,17.63 2.5,16 C2.22385763,16 2,15.7761424 2,15.5 L2,12.34 C2,12.0638576 2.22385763,11.84 2.5,11.84 L2.5,9.16 C2.22385763,9.16 2,8.93614237 2,8.66 L2,5.5 C2,5.22385763 2.22385763,5 2.5,5 C2.29,3.37 3.4,1.77 5.125,1.78489535 L17.875,1.78489535 C19.3236063,1.7877514 20.4972486,2.96139373 20.5,4.41 L20.5,16.59 Z M21.5,10.5 C21.5,10.035 22,9.96 22.355,10 C22.6311424,10 22.855,10.2238576 22.855,10.5 C22.855,10.965 22.355,11.04 22,11 C21.7238576,11 21.5,10.7761424 21.5,10.5 Z M23.34,12.37 C23.11,12.655 22.705,12.955 22.38,12.62 C22.055,12.285 22.345,11.89 22.63,11.66 C22.8260611,11.4639389 23.1439389,11.4639389 23.34,11.66 C23.5360611,11.8560611 23.5360611,12.1739389 23.34,12.37 L23.34,12.37 Z M25,13 C25,13.2761424 24.7761424,13.5 24.5,13.5 C24.2238576,13.5 24,13.2761424 24,13 L24,12.645 C24,12.3688576 24.2238576,12.145 24.5,12.145 C24.7761424,12.145 25,12.3688576 25,12.645 L25,13 Z M24.5,12.07 C22.445,12.07 22.445,8.94 24.5,8.92997617 C26.555,8.92 26.555,12.06 24.5,12.07 Z M26.62,12.62 C26.295,12.955 25.89,12.655 25.66,12.37 C25.5653437,12.2761167 25.5121008,12.1483188 25.5121008,12.015 C25.5121008,11.8816812 25.5653437,11.7538833 25.66,11.66 C25.985,11.325 26.395,11.63 26.62,11.915 C26.8138618,12.1100187 26.8138618,12.4249813 26.62,12.62 Z M27,11 C26.635,11.04 26.135,10.97 26.145,10.5 C26.155,10.03 26.645,9.96 27,10 C27.2761424,10 27.5,10.2238576 27.5,10.5 C27.5,10.7761424 27.2761424,11 27,11 Z" id="Shape"></path>
                <path d="M24.5,10 C24.2238576,10 24,10.2238576 24,10.5 C24,10.7761424 24.2238576,11 24.5,11 C24.7761424,11 25,10.7761424 25,10.5 C25,10.2238576 24.7761424,10 24.5,10 Z" id="Path"></path>
            </g>
        </g>
    </g>
</svg>