<?xml version="1.0" encoding="UTF-8"?>
<svg width="24px" height="28px" viewBox="0 0 24 28" version="1.1" xmlns="http://www.w3.org/2000/svg" xmlns:xlink="http://www.w3.org/1999/xlink">
    <title>iconSalary</title>
    <g id="Page-1" stroke="none" stroke-width="1" fill="none" fill-rule="evenodd">
        <g id="iPhone-13" transform="translate(-124.000000, -239.000000)" fill="#388D65" fill-rule="nonzero">
            <g id="iconSalary" transform="translate(124.000000, 239.000000)">
                <path d="M17.7331636,-1.55431223e-15 C17.4997784,-1.55431223e-15 17.2664815,0.155389022 17.2664815,0.466661065 L17.2664815,0.93333991 C17.2664815,1.55570751 18.1998651,1.55570751 18.1998651,0.93333991 L18.1998651,0.466661065 C18.1998651,0.155477264 17.9665664,-1.55431223e-15 17.7331636,-1.55431223e-15 Z M15.8663805,1.40000083 C15.632976,1.40000083 15.3996791,1.55556623 15.3996791,1.86666194 L15.3996791,2.33334067 C15.3996791,2.95570828 16.3330803,2.95570828 16.3330803,2.33334067 L16.3330803,1.86666194 C16.3330803,1.55547822 16.0997816,1.40000083 15.8663805,1.40000083 Z M19.599966,1.40000083 C19.3665632,1.40000083 19.1332663,1.55556623 19.1332663,1.86666194 L19.1332663,2.33334067 C19.1332663,2.95570828 20.0666657,2.95570828 20.0666657,2.33334067 L20.0666657,1.86666194 C20.0666657,1.55547822 19.8333688,1.40000083 19.599966,1.40000083 Z M3.26825351,6.06666476 L3.26825351,6.53334332 L3.73495394,6.53427671 C4.35875568,6.53427671 4.98890684,6.07712221 5.14872454,5.48062943 C5.20057967,5.28289205 5.37560168,5.14126052 5.57986681,5.13244144 C5.65729676,5.12889624 5.7336702,5.14655168 5.80319876,5.18076901 C6.34561897,5.44595334 6.85193426,5.60187167 7.4676226,5.60187167 C8.05420823,5.60187167 8.58601066,5.44595352 9.12841306,5.18076901 C9.39317656,5.05007291 9.7114004,5.19487925 9.78653831,5.48064672 C9.94933662,6.0880931 10.5725743,6.53427671 11.1966581,6.53337701 L11.6651754,6.53244361 L11.6661098,6.06668204 C11.66789,3.73180695 9.78807174,1.86758792 7.46763072,1.86758792 C5.1472255,1.86758792 3.26825351,3.73180695 3.26825351,6.06666476 Z M17.7331636,3.73334144 C16.4544125,3.73334144 15.3996791,4.77183802 15.3996791,6.06666476 C15.3996791,7.36149114 16.4544125,8.40000501 17.7331636,8.40000501 C19.0119517,8.40000501 20.0666657,7.36149114 20.0666657,6.06666476 C20.0666657,4.77183802 19.0119517,3.73334144 17.7331636,3.73334144 L17.7331636,3.73334144 Z M5.84694086,6.21797927 C5.52727072,6.81932261 4.88748896,7.27922826 4.19800335,7.41927293 L4.19800335,8.43007763 C4.19800335,10.2072984 5.64761431,11.6675852 7.4676226,11.6675852 C9.26962253,11.6675852 10.7326915,10.2291869 10.7326915,8.43007763 L10.7326915,7.41927293 C10.0336462,7.27005696 9.42788792,6.83726026 9.08467114,6.21887897 C8.56117629,6.4348011 7.97831206,6.53516019 7.4676226,6.53516019 C6.83459648,6.53516019 6.34224998,6.40569873 5.84694086,6.21797927 Z M3.26643682,7.4666657 C2.74541125,7.4666657 2.33303577,7.88995492 2.33303577,8.40000501 C2.33303577,8.91005527 2.74541125,9.33424437 3.26643682,9.33424437 L3.36485751,9.33424437 C3.29977402,9.04235624 3.26820236,8.74119097 3.26820236,8.43007763 L3.26643682,7.4666657 Z M11.6660923,8.43007763 C11.6660923,8.74073221 11.6313441,9.04205675 11.5667915,9.3333452 L11.6652122,9.3333452 C12.1862374,9.3333452 12.5995301,8.91005527 12.5995301,8.40000501 C12.5995301,7.89025493 12.1867133,7.46717719 11.6661109,7.4666657 L11.6660923,8.43007763 Z M15.230141,11.295639 C15.1183173,11.3527855 14.9338965,11.4870094 14.9338965,11.839783 C14.9338965,12.5911889 15.4525043,13.3644306 15.6931932,13.999938 L16.1015471,13.999938 C16.9983834,13.999938 17.7340807,14.7246229 17.7340807,15.6323699 C17.7340807,16.540099 16.9983834,17.2657017 16.1015471,17.2657017 L15.357754,17.2657017 C14.5536925,18.7721991 12.8370236,20.1474537 12.3360527,21.9506031 C12.3536905,22.0984078 12.3662134,22.2480469 12.3662134,22.3990265 C12.3662134,22.8009214 12.3087141,23.2024812 12.1529175,23.5529443 C12.1511361,23.5564719 12.1423348,23.5804593 12.1405711,23.5839869 C12.276913,26.0094314 14.3710332,28 17.7327403,28 C21.2054256,28 23.3331282,25.8670943 23.3331282,23.3150986 C23.3331282,22.3251594 22.9526244,21.4666395 22.4152306,20.6308547 C22.1648955,20.8601637 21.8272516,21.0009133 21.4645108,21.0009133 L20.0680609,21.0009133 C20.0662971,21.6237041 19.1313279,21.6228222 19.1319276,20.9999803 C19.1319276,20.7462782 18.9336752,20.5351343 18.6670604,20.5351343 L18.198544,20.5351343 L18.198544,22.3981464 L18.6670604,22.3981464 C19.4437127,22.3981464 20.0662442,23.0333541 20.0662442,23.8008807 L20.0662442,24.7342201 C20.0662442,25.5017643 19.4526375,26.1324039 18.6670604,26.1324039 L18.198544,26.1324039 L18.198544,26.6018004 C18.198544,27.2286831 17.2687744,27.2192469 17.2687744,26.6018004 L17.2687744,26.1324039 L16.8002562,26.1324039 C16.0327244,26.1324039 15.4010724,25.5218008 15.4010724,24.7342201 C15.4010724,24.1113941 16.3353908,24.1113941 16.3353908,24.7342201 C16.3353908,25.0008331 16.5427426,25.1990644 16.8002562,25.1990644 L17.2687744,25.1990644 L17.2687744,23.332403 L16.8002562,23.332403 C16.0327244,23.332403 15.4010724,22.7172495 15.4010724,21.9333022 L15.4010724,20.9999803 C15.4010724,20.232452 16.0120864,19.6017948 16.8002562,19.6017948 L17.2687744,19.6017948 L17.2687744,19.1324 C17.2670106,18.8764226 17.4704291,18.6664623 17.7263748,18.6611709 C17.9880351,18.6576434 18.2003078,18.8707433 18.198544,19.1324 L18.198544,19.6017948 L18.6670604,19.600031 C18.6670604,19.2366924 18.8005786,18.9127918 19.0243705,18.665792 C18.8009507,18.4177693 18.6670604,18.092881 18.6670604,17.7315354 C18.6670604,17.3695724 18.8083392,17.0380347 19.0234533,16.7982135 C18.7993633,16.5500837 18.6670604,16.22486 18.6670604,15.8630559 C18.6670604,15.2498596 19.0602987,14.7348535 19.6031955,14.5441711 C19.6049593,14.5318246 19.6084868,14.5219492 19.6120144,14.509601 C19.7278948,14.000927 19.9796602,13.5266991 20.1570965,13.1560936 C19.7338405,13.2104181 19.2219333,13.1578751 18.5865439,12.9874763 C17.7849147,12.7215769 17.2525829,12.2726945 16.8382498,11.9091973 C16.4238991,11.5457169 16.1568945,11.3034267 15.8100436,11.2265257 C15.7534263,11.2124154 15.6647082,11.1993652 15.5624865,11.2064045 C15.4711227,11.2116782 15.3433792,11.2376128 15.230141,11.2956394 L15.230141,11.295639 Z M19.6528265,11.2275748 C19.2856216,11.3090614 18.9743479,11.6098568 18.5508079,11.9767936 C18.646052,12.0200062 18.7396029,12.0565165 18.846137,12.0924976 C19.6515919,12.3057386 20.0875665,12.263937 20.3146038,12.1618141 C20.4703456,12.0917921 20.5333672,11.9871999 20.5333672,11.8355143 C20.5333672,11.4827408 20.3541831,11.3577063 20.2353025,11.2968557 C20.1282411,11.2420021 20.0101013,11.2173092 19.9053328,11.2100954 C19.8005643,11.2028815 19.708756,11.2113834 19.6528265,11.2275744 L19.6528265,11.2275748 Z M6.06570461,12.3638569 L6.06570461,13.3400211 L7.19234698,14.4656834 L7.74018183,14.4656834 L8.86590721,13.3400211 L8.86590721,12.3647739 C8.42746289,12.5189283 7.9598631,12.6026551 7.4676226,12.6026551 C6.97531173,12.6026551 6.50490736,12.5186992 6.06570461,12.3638569 L6.06570461,12.3638569 Z M5.03570045,13.6289634 L4.30739387,13.9698497 L5.63821336,15.6369046 L6.33916354,14.9359953 L5.03570045,13.6289634 Z M9.89956222,13.6289634 L8.59334799,14.9350783 L9.29339864,15.6369046 L10.6269522,13.9698497 L9.89956222,13.6289634 Z M11.4965562,14.3763477 L9.69630262,16.6258381 C9.52256852,16.8410381 9.20085204,16.8588523 9.00445354,16.6641121 L8.87410843,16.5328869 L8.42836188,16.9712933 L8.75286496,18.9154375 C8.93275447,18.7713366 9.16245367,18.6675205 9.44836488,18.6675205 C9.88017739,18.6675205 10.2200608,18.8968472 10.43371,19.2435711 C10.6396156,19.5778074 10.7327439,20.0140255 10.7345075,20.5323652 L11.1984742,20.5323652 C11.4352813,20.5323652 11.6443266,20.6253164 11.8000874,20.7574958 C12.535308,19.244012 13.6908231,18.2253056 14.3915447,17.0715642 C13.8812249,16.7967496 13.5337931,16.2585136 13.5337931,15.633271 C13.5337931,15.5724206 13.5373383,15.5055734 13.5443758,15.4464338 C13.2188516,15.1905109 12.7530331,14.9715905 12.2080907,14.709052 L11.4965562,14.3763477 Z M3.4350556,14.3772811 L2.72498668,14.709066 C2.18196678,14.971499 1.70888129,15.195305 1.38323158,15.4509651 C1.08880113,15.6821263 0.86859125,15.9611209 0.798039343,16.4052585 L0.0123035531,21.8038213 C-0.0467830784,22.1788009 0.108960463,22.5448206 0.436161416,22.8401479 C0.763433626,23.1354752 1.25422765,23.3341474 1.7387248,23.3341474 C3.49223788,23.3341474 5.24516909,23.3326076 6.99910548,23.3332144 L6.99910548,21.4656359 L3.73313725,21.4673997 C3.41403117,21.46671 3.18946475,21.1524926 3.29195889,20.8503571 L3.60550889,19.9434549 C3.8099153,19.3555165 4.69227202,19.6617792 4.48786561,20.2497 L4.38768114,20.535891 L5.90264121,20.535891 L6.5024199,16.955735 L6.07036029,16.5237134 L5.93084352,16.6641103 C5.73409333,16.861602 5.40927242,16.8436997 5.23534466,16.6258363 L3.4350556,14.3772811 Z M14.4662778,15.633252 C14.4662778,16.0163625 14.7695281,16.3323442 15.165412,16.3323442 L16.1006458,16.3323442 C16.4965298,16.3323442 16.79978,16.0163625 16.79978,15.633252 C16.79978,15.2501235 16.4965298,14.9341599 16.1006458,14.9341599 C15.7820172,14.9341599 15.4773577,14.9394513 15.165412,14.9341774 C14.7768301,14.9341599 14.4662778,15.2501235 14.4662778,15.633252 Z M7.19234698,15.3990396 L6.72929775,15.8629667 L7.47127398,16.6049002 L8.2141672,15.8739021 L7.74018183,15.3990396 L7.19234698,15.3990396 Z M20.0684824,15.3990396 C19.8018324,15.3990042 19.599966,15.6100935 19.599966,15.8638488 C19.599966,16.1176034 19.8018324,16.3323442 20.0684824,16.3323442 L20.9991498,16.3323442 C21.2658016,16.3323442 21.467668,16.1176034 21.467668,15.8638488 C21.467668,15.6100935 21.2658016,15.3990042 20.9991498,15.3990042 L20.0684824,15.3990396 Z M20.0684824,17.2675184 C19.8018324,17.2674848 19.599966,17.4786076 19.599966,17.732345 C19.599966,17.9861 19.8018324,18.2008402 20.0684824,18.2008402 L21.4649341,18.2008402 C21.7315842,18.2008402 21.9334505,17.9861 21.9334505,17.732345 C21.9334505,17.4786076 21.7315842,17.2674848 21.4649341,17.2675007 L20.0684824,17.2675184 Z M7.32269156,17.7040892 L6.85144058,20.5368963 L7.4329996,20.5368963 C7.58645023,20.5245499 7.69278871,20.4702254 7.80216194,20.3537101 C7.8674218,20.2842172 7.93409445,20.1884439 7.999954,20.0748036 L7.60526906,17.7077402 C7.51302336,17.7352552 7.41442647,17.7341969 7.32269156,17.7042127 L7.32269156,17.7040892 Z M3.26643682,17.7340735 L4.66562095,17.7340735 C5.28855825,17.7346326 5.28855825,18.6679774 4.66562095,18.6674129 L3.26643682,18.6674129 C2.64349898,18.6668521 2.64349898,17.7335267 3.26643682,17.7340735 L3.26643682,17.7340735 Z M20.0657486,19.1349734 C19.801074,19.1367372 19.6008832,19.3464153 19.6008832,19.5989005 C19.6008832,19.8526555 19.8027496,20.0673957 20.0693996,20.0673957 L21.4658513,20.0673957 C21.732519,20.0673957 21.9343677,19.8526555 21.9343677,19.5989005 C21.9343677,19.3461155 21.7336831,19.1365608 21.4685852,19.1349734 L20.0693996,19.1349734 L20.065872,19.1349734 L20.0657486,19.1349734 Z M9.27251495,19.7092602 C9.18802989,19.8124413 9.08530593,20.0121894 8.9662319,20.2461019 C8.84717498,20.4800144 8.7018739,20.7582701 8.47492621,20.9998904 C8.32641416,21.157925 8.14409099,21.2881273 7.93257654,21.3708486 L7.93257654,23.3332126 L11.1985449,23.3341457 C11.21689,23.3163315 11.2601009,23.2620071 11.298904,23.1746999 C11.3765104,23.0000857 11.4329531,22.6981424 11.4329531,22.3999402 C11.4329531,22.1017396 11.3765121,21.8025479 11.298904,21.6279336 C11.2601009,21.5404501 11.2151245,21.4870076 11.1967812,21.467606 L10.2688477,21.4658422 C10.0110162,21.4668229 9.80126517,21.2588097 9.80033054,21.000998 L9.80033054,20.5717116 C9.80387574,20.1407478 9.73083761,19.8836063 9.63806101,19.7331559 C9.55780902,19.6029889 9.49519306,19.6028125 9.44841815,19.602686 C9.40162506,19.6025585 9.35700143,19.6060402 9.2725146,19.7092743 L9.27251495,19.7092602 Z M16.79978,20.535891 C16.5434816,20.535891 16.3348952,20.7341416 16.3348952,21.0007193 L16.3348952,21.9340588 C16.3348952,22.2006542 16.5422664,22.398903 16.79978,22.398903 L17.2682964,22.398903 L17.2682964,20.535891 L16.79978,20.535891 Z M18.1980484,23.3331597 L18.1980484,25.199821 L18.6665648,25.199821 C18.9228791,25.199821 19.1314496,25.0015898 19.1314496,24.7349768 L19.1314496,23.8016373 C19.1314496,23.5478117 18.9331796,23.3331597 18.6665648,23.3331597 L18.1980484,23.3331597 Z" id="path7053"></path>
            </g>
        </g>
    </g>
</svg>