<?xml version="1.0" encoding="UTF-8"?>
<svg width="28px" height="28px" viewBox="0 0 28 28" version="1.1" xmlns="http://www.w3.org/2000/svg" xmlns:xlink="http://www.w3.org/1999/xlink">
    <title>iconPets</title>
    <g id="Page-1" stroke="none" stroke-width="1" fill="none" fill-rule="evenodd">
        <g id="iPhone-13" transform="translate(-253.000000, -56.000000)">
            <g id="iconPets" transform="translate(253.000000, 56.000000)">
                <polygon id="Path" points="0 0 28 0 28 28 0 28"></polygon>
                <path d="M5.25,14 C3.63916949,14 2.33333333,12.6941639 2.33333333,11.0833333 C2.33333333,9.47250282 3.63916949,8.16666667 5.25,8.16666667 C6.86083051,8.16666667 8.16666667,9.47250282 8.16666667,11.0833333 C8.16666667,12.6941639 6.86083051,14 5.25,14 Z M10.5,9.33333333 C8.88916949,9.33333333 7.58333333,8.02749718 7.58333333,6.41666667 C7.58333333,4.80583615 8.88916949,3.5 10.5,3.5 C12.1108305,3.5 13.4166667,4.80583615 13.4166667,6.41666667 C13.4166667,8.02749718 12.1108305,9.33333333 10.5,9.33333333 Z M17.5,9.33333333 C15.8891695,9.33333333 14.5833333,8.02749718 14.5833333,6.41666667 C14.5833333,4.80583615 15.8891695,3.5 17.5,3.5 C19.1108305,3.5 20.4166667,4.80583615 20.4166667,6.41666667 C20.4166667,8.02749718 19.1108305,9.33333333 17.5,9.33333333 Z M22.75,14 C21.1391694,14 19.8333333,12.6941639 19.8333333,11.0833333 C19.8333333,9.47250282 21.1391694,8.16666667 22.75,8.16666667 C24.3608305,8.16666667 25.6666667,9.47250282 25.6666667,11.0833333 C25.6666667,12.6941639 24.3608305,14 22.75,14 Z M20.23,17.3366667 C21.7583333,18.865 23.6366667,20.5566667 23.275,22.9366667 C22.9366667,24.115 22.085,25.305 20.5566667,25.6433333 C19.705,25.8066667 16.9866667,25.13 14.0933333,25.13 L13.8833333,25.13 C10.99,25.13 8.27166667,25.8183333 7.42,25.6433333 C5.89166667,25.305 5.04,24.1266667 4.70166667,22.9366667 C4.35166667,20.5683333 6.23,18.8766667 7.75833333,17.3483333 C8.785,16.1583333 9.63666667,15.1433333 10.6516667,13.9533333 C11.2,13.3233333 11.8766667,12.6933333 12.6933333,12.4133333 C12.8216667,12.3666667 12.95,12.3316667 13.0783333,12.3083333 C13.3816667,12.25 13.6966667,12.25 14,12.25 C14.3033333,12.25 14.6183333,12.25 14.91,12.2966667 C15.0383333,12.32 15.1666667,12.355 15.295,12.4016667 C16.1116667,12.6816667 16.8,13.3116667 17.3366667,13.9416667 C18.3633333,15.1316667 19.215,16.1466667 20.23,17.3366667 Z" id="🔹-Primary-Color" fill="#388D65" fill-rule="nonzero"></path>
            </g>
        </g>
    </g>
</svg>