<?xml version="1.0" encoding="UTF-8"?>
<svg width="28px" height="27px" viewBox="0 0 28 27" version="1.1" xmlns="http://www.w3.org/2000/svg" xmlns:xlink="http://www.w3.org/1999/xlink">
    <title>iconTransportation</title>
    <g id="Page-1" stroke="none" stroke-width="1" fill="none" fill-rule="evenodd">
        <g id="iPhone-13" transform="translate(-93.000000, -57.000000)" fill="#388D65" fill-rule="nonzero">
            <g id="iconTransportation" transform="translate(93.000000, 57.000000)">
                <path d="M26,12 L27,12 C27.6,12 28,11.6 28,11 C28,10.4 27.6,10 27,10 L24.2,10 L23,7 C22.3,5.3 20.7,4.2 18.8,4 L18.2,1.5 C18,0.6 17.2,0 16.3,0 L11.9,0 C11,0 10.2,0.6 10,1.5 L9.2,4 C7.4,4.2 5.8,5.3 5,7 L3.7,10 L1,10 C0.4,10 0,10.4 0,11 C0,11.6 0.4,12 1,12 L2,12 C0.8,12.9 0,14.4 0,16 L0,20 C0,20.9 0.4,21.7 1,22.2 L1,24 C1,25.7 2.3,27 4,27 L6,27 C7.7,27 9,25.7 9,24 L9,23 L19,23 L19,24 C19,25.7 20.3,27 22,27 L24,27 C25.7,27 27,25.7 27,24 L27,22.2 C27.6,21.7 28,20.9 28,20 L28,16 C28,14.4 27.2,12.9 26,12 Z M11.8,2 L16.2,2 L16.7,4 L11.3,4 L11.8,2 Z M7,18 L4,18 C3.4,18 3,17.6 3,17 C3,16.4 3.4,16 4,16 L7,16 C7.6,16 8,16.4 8,17 C8,17.6 7.6,18 7,18 Z M8.4,21 L9.6,18.7 C10.1,17.7 11.1,17 12.3,17 L15.8,17 C16.9,17 18,17.6 18.5,18.7 L19.7,21 L8.4,21 Z M5.5,11 L6.9,7.8 C7.4,6.7 8.4,6 9.6,6 L10,6 L18,6 L18.4,6 C19.6,6 20.7,6.7 21.2,7.8 L22.6,11 L5.5,11 Z M24,18 L21,18 C20.4,18 20,17.6 20,17 C20,16.4 20.4,16 21,16 L24,16 C24.6,16 25,16.4 25,17 C25,17.6 24.6,18 24,18 Z" id="Shape"></path>
            </g>
        </g>
    </g>
</svg>