<?xml version="1.0" encoding="UTF-8"?>
<svg width="29px" height="28px" viewBox="0 0 29 28" version="1.1" xmlns="http://www.w3.org/2000/svg" xmlns:xlink="http://www.w3.org/1999/xlink">
    <title>iconFood</title>
    <g id="Page-1" stroke="none" stroke-width="1" fill="none" fill-rule="evenodd">
        <g id="iPhone-13" transform="translate(-181.000000, -56.000000)" fill="#388D65" fill-rule="nonzero">
            <g id="iconFood" transform="translate(181.000000, 56.000000)">
                <path d="M17.8529186,10.162963 C18.060326,10.3703704 18.3714371,10.4740741 18.5788445,10.4740741 C18.7862519,10.4740741 19.0973631,10.3703704 19.3047705,10.162963 L24.9047705,4.56296296 C25.3195853,4.14814815 25.3195853,3.52592593 24.9047705,3.11111111 C24.4899556,2.6962963 23.8677334,2.6962963 23.4529186,3.11111111 L17.8529186,8.71111111 C17.4381038,9.12592593 17.4381038,9.74814815 17.8529186,10.162963 Z" id="Path"></path>
                <path d="M27.7047705,7.36296296 C28.1195853,6.94814815 28.1195853,6.32592593 27.7047705,5.91111111 C27.2899556,5.4962963 26.6677334,5.4962963 26.2529186,5.91111111 L21.1714371,10.9925926 C19.823289,12.3407407 18.5788445,13.0666667 17.3344001,13.0666667 C17.1269927,13.0666667 16.8158816,13.0666667 16.6084742,13.1703704 L14.8455112,11.4074074 C14.8455112,11.2 14.9492149,10.8888889 14.9492149,10.6814815 C15.0529186,9.54074074 15.7788445,8.19259259 17.023289,6.84444444 L22.1047705,1.76296296 C22.5195853,1.34814815 22.5195853,0.725925926 22.1047705,0.311111111 C21.6899556,-0.103703704 21.0677334,-0.103703704 20.6529186,0.311111111 L15.5714371,5.39259259 C14.223289,6.74074074 13.3936593,8.19259259 12.9788445,9.54074074 L3.95662231,0.518518519 C3.5418075,0.103703704 2.91958527,0.103703704 2.50477046,0.518518519 C-0.502636948,3.52592593 -0.502636948,8.5037037 2.50477046,11.6148148 L11.1121779,20.2222222 C11.423289,20.5333333 11.8381038,20.637037 12.2529186,20.4296296 C13.3936593,19.9111111 14.7418075,20.2222222 15.5714371,21.2592593 L19.823289,26.5481481 C20.4455112,27.3777778 21.3788445,27.7925926 22.4158816,27.8962963 C22.5195853,27.8962963 22.5195853,27.8962963 22.623289,27.8962963 C23.5566223,27.8962963 24.4899556,27.4814815 25.2158816,26.8592593 C25.9418075,26.1333333 26.2529186,25.3037037 26.2529186,24.2666667 C26.2529186,23.2296296 25.8381038,22.4 25.2158816,21.6740741 L18.4751408,14.9333333 C19.823289,14.6222222 21.2751408,13.7925926 22.623289,12.3407407 L27.7047705,7.36296296 Z" id="Path"></path>
                <path d="M1.36402972,21.9851852 C0.638103793,22.6074074 0.119585274,23.437037 0.0158815704,24.3703704 C-0.0878221333,25.3037037 0.326992682,26.237037 0.949214904,26.962963 C1.57143713,27.6888889 2.40106676,28 3.33440009,28 C3.43810379,28 3.5418075,28 3.5418075,28 C4.47514083,27.8962963 5.40847416,27.4814815 5.92699268,26.7555556 L9.76402972,21.9851852 L6.03069639,18.2518519 L1.36402972,21.9851852 Z" id="Path"></path>
            </g>
        </g>
    </g>
</svg>