<?xml version="1.0" encoding="UTF-8"?>
<svg width="28px" height="28px" viewBox="0 0 28 28" version="1.1" xmlns="http://www.w3.org/2000/svg" xmlns:xlink="http://www.w3.org/1999/xlink">
    <title>iconBills</title>
    <g id="Page-1" stroke="none" stroke-width="1" fill="none" fill-rule="evenodd">
        <g id="iPhone-13" transform="translate(-315.000000, -56.000000)" fill="#388D65" fill-rule="nonzero">
            <g id="iconBills" transform="translate(315.000000, 56.000000)">
                <path d="M4.54993915,0.00212199748 C4.51861256,-0.000707332495 4.48712907,-0.000707332495 4.45580248,0.00212199748 C3.24415892,0.0968234897 2.11264658,0.644620474 1.28684308,1.53633533 C0.461039582,2.42804496 0.00156371472,3.59820563 0,4.81356237 L0,19.2478521 C0.00138590101,20.2405233 0.396341539,21.1921928 1.09828209,21.8940863 C1.80021742,22.596032 2.75187642,22.9909877 3.74454763,22.9923997 L8.34678493,22.9923997 L8.34678493,27.3436059 C8.34678493,27.4649899 8.38056954,27.5840205 8.44442558,27.6872571 C8.50822932,27.7905459 8.59959419,27.8740138 8.70816516,27.9282992 C8.81673612,27.9825847 8.93832932,28.0055959 9.05924265,27.9946656 C9.18015597,27.9837876 9.29563029,27.9394387 9.39274796,27.8665874 L13.4510845,24.822835 L17.509421,27.8665874 C17.621862,27.9530886 17.7597723,28 17.9016572,28 C18.043542,28 18.1814523,27.9530886 18.2938933,27.8665874 L22.3522298,24.822835 L26.4105664,27.8665874 C26.5230074,27.9528271 26.6611268,27.9989017 26.8028025,27.9973328 C26.8888329,27.9980127 26.9741835,27.9815911 27.0537813,27.948957 C27.1334314,27.9163753 27.2057597,27.868261 27.2666348,27.8073859 C27.3274575,27.7465632 27.3755718,27.6742348 27.4082059,27.5945847 C27.4407876,27.5149346 27.4572093,27.4296364 27.4565688,27.3436059 L27.4565688,3.90880435 C27.4551696,2.8722027 27.0423803,1.87853259 26.3088987,1.14603946 C25.5754172,0.413546323 24.5812293,0.00212199748 23.5446277,0.00212199748 L4.54993915,0.00212199748 Z M8.34678493,21.7006354 L3.74454763,21.7006354 C3.09819478,21.7006354 2.47830479,21.4438515 2.02126079,20.9868179 C1.56421678,20.5297844 1.30745378,19.9098944 1.30745378,19.2635415 L1.30745378,4.82925181 C1.30745378,3.89578211 1.67827382,3.00054236 2.33835494,2.34046124 C2.9984099,1.68039582 3.89364965,1.30957578 4.82711936,1.30957578 C5.76058906,1.30957578 6.65582881,1.68039582 7.31588378,2.34046124 C7.97593874,3.00054236 8.34678493,3.89578211 8.34678493,4.82925181 L8.34678493,21.7006354 Z M17.2688495,6.75905359 L17.2688495,5.63987316 C17.2688495,5.46650479 17.3377262,5.30019666 17.4603131,5.1776098 C17.5828999,5.05502293 17.749208,4.98614627 17.9225764,4.98614627 C18.0959448,4.98614627 18.2622529,5.05502293 18.3848398,5.1776098 C18.5074266,5.30019666 18.5763033,5.46650479 18.5763033,5.63987316 L18.5763033,6.75382378 L19.6484154,6.75382378 C19.8217838,6.75382378 19.9880919,6.82270044 20.1106788,6.94528731 C20.2332656,7.06787417 20.3021423,7.2341823 20.3021423,7.40755067 C20.3021423,7.58091904 20.2332656,7.74717486 20.1106788,7.86981403 C19.9880919,7.99240089 19.8217838,8.06127756 19.6484154,8.06127756 L17.284539,8.06127756 C17.031259,8.06044079 16.7874973,8.15792454 16.604663,8.33322794 C16.5201492,8.41439467 16.4529461,8.51187843 16.4070806,8.61971722 C16.3612674,8.727556 16.3377332,8.8436056 16.3379424,8.96080576 C16.3413418,9.08166679 16.3684846,9.20069738 16.4179063,9.31109877 C16.4673281,9.42150017 16.5380352,9.52102355 16.6258961,9.60412532 C16.7138092,9.68717478 16.817255,9.75207679 16.9302713,9.79511816 C17.0432876,9.83821184 17.1636256,9.85855582 17.284539,9.85510414 L18.5187753,9.85510414 C19.1092738,9.84950824 19.6779116,10.0779989 20.1003237,10.4906313 C20.5227359,10.9032637 20.7645625,11.4664102 20.7728257,12.0568563 C20.7720935,12.3498828 20.7124736,12.6397715 20.59747,12.9093162 C20.4824663,13.1788085 20.3144324,13.4224656 20.1034093,13.6258008 C19.6829322,14.0338833 19.1204133,14.2626354 18.5344648,14.2638383 L18.5344648,15.3830187 C18.5344648,15.5563871 18.4655881,15.7226429 18.3430013,15.8452821 C18.2204144,15.9678689 18.0541063,16.0367456 17.8807379,16.0367456 C17.7073695,16.0367456 17.5410614,15.9678689 17.4184745,15.8452821 C17.2958877,15.7226429 17.227011,15.5563871 17.227011,15.3830187 L17.227011,14.2586085 L16.181048,14.2586085 C16.0076796,14.2586085 15.8413715,14.1897318 15.7187846,14.0671449 C15.5961978,13.9445058 15.5273211,13.77825 15.5273211,13.6048816 C15.5273211,13.4315132 15.5961978,13.2652051 15.7187846,13.1426182 C15.8413715,13.0200314 16.0076796,12.9511547 16.181048,12.9511547 L18.5240052,12.9511547 C18.7746702,12.9514685 19.0159739,12.8560767 19.1986513,12.6844341 C19.2846295,12.6040519 19.3530877,12.5068819 19.3998946,12.3989385 C19.4466491,12.2909428 19.4707586,12.1745271 19.4706017,12.0568563 C19.4672023,11.935943 19.4400596,11.8169124 19.3906378,11.706511 C19.3412161,11.5961619 19.270509,11.4965862 19.1826481,11.4135368 C19.0947349,11.3304873 18.9912891,11.2655853 18.8782728,11.2224916 C18.7652565,11.1794502 18.6448662,11.1590539 18.5240052,11.1625579 L17.284539,11.1625579 C16.9919831,11.1660096 16.7015715,11.1117764 16.4299349,11.0029963 C16.1582983,10.8942161 15.9107711,10.7329809 15.7014739,10.5285474 C15.4921767,10.324114 15.3251887,10.0804046 15.2100282,9.81143519 C15.09492,9.5424135 15.033888,9.25336162 15.0304887,8.96080576 C15.0312208,8.66777922 15.0908407,8.37783827 15.2058444,8.10834589 C15.320848,7.83880122 15.488882,7.59514414 15.699905,7.39186122 C16.1209051,6.9851908 16.6835286,6.75826912 17.2688495,6.75905359 Z M14.2512462,20.9370824 C14.0778778,20.9370824 13.9115697,20.8682057 13.7889828,20.7456189 C13.666396,20.6229797 13.5975193,20.4567239 13.5975193,20.2833555 C13.5975193,20.1099871 13.666396,19.943679 13.7889828,19.8210921 C13.9115697,19.6985053 14.0778778,19.6296286 14.2512462,19.6296286 L21.5729874,19.6296286 C21.7463557,19.6296286 21.9126639,19.6985053 22.0352507,19.8210921 C22.1578376,19.943679 22.2267143,20.1099871 22.2267143,20.2833555 C22.2267143,20.4567239 22.1578376,20.6229797 22.0352507,20.7456189 C21.9126639,20.8682057 21.7463557,20.9370824 21.5729874,20.9370824 L14.2512462,20.9370824 Z M21.5729874,18.4633798 L14.2512462,18.4633798 C14.0764658,18.4633798 13.9088502,18.3939279 13.7852697,18.2703474 C13.6617414,18.1467668 13.5922895,17.9791512 13.5922895,17.8044231 C13.5922895,17.6296427 13.6617414,17.4620271 13.7852697,17.3384466 C13.9088502,17.2148661 14.0764658,17.1454664 14.2512462,17.1454664 L21.5729874,17.1454664 C21.7463557,17.1454664 21.9126639,17.2143431 22.0352507,17.33693 C22.1578376,17.4595168 22.2267143,17.6258249 22.2267143,17.7991933 C22.2267143,17.9725617 22.1578376,18.1388175 22.0352507,18.2614567 C21.9126639,18.3840435 21.7463557,18.4529202 21.5729874,18.4529202 L21.5729874,18.4633798 Z" id="Shape"></path>
            </g>
        </g>
    </g>
</svg>