<?xml version="1.0" encoding="UTF-8"?>
<svg width="21px" height="28px" viewBox="0 0 21 28" version="1.1" xmlns="http://www.w3.org/2000/svg" xmlns:xlink="http://www.w3.org/1999/xlink">
    <title>iconsSavings</title>
    <g id="Page-1" stroke="none" stroke-width="1" fill="none" fill-rule="evenodd">
        <g id="iPhone-13" transform="translate(-53.000000, -241.000000)" fill="#388D65" fill-rule="nonzero">
            <g id="iconsSavings" transform="translate(53.000000, 241.000000)">
                <circle id="Oval" cx="14.4614386" cy="13.749895" r="1"></circle>
                <path d="M12.577426,26.7814825 L12.6974268,27.0664845 C12.9324754,27.6316074 13.4843807,27.9998731 14.0964362,28 C14.8077135,28.0024713 15.423682,27.5068189 15.5734461,26.8114828 L15.8319478,25.6449749 C14.8130505,26.1912982 13.7149201,26.574775 12.577426,26.7814825 L12.577426,26.7814825 Z" id="Path"></path>
                <path d="M10.2114101,17.4999202 C8.00589525,17.4999202 6.2113832,18.7339285 6.2113832,20.2499387 C6.2113832,21.7659489 8.00589525,22.9999572 10.2114101,22.9999572 C12.4169249,22.9999572 14.2114369,21.7659489 14.2114369,20.2499387 C14.2114369,18.7339285 12.4169249,17.4999202 10.2114101,17.4999202 Z M8.21139663,21.4999471 C7.38296395,21.4999471 6.71138656,20.8283697 6.71138656,19.999937 C6.71138656,19.1715043 7.38296395,18.4999269 8.21139663,18.4999269 C9.03982932,18.4999269 9.71140671,19.1715043 9.71140671,19.999937 C9.71140671,20.8283697 9.03982932,21.4999471 8.21139663,21.4999471 L8.21139663,21.4999471 Z M12.2114235,21.4999471 C11.3829908,21.4999471 10.7114134,20.8283697 10.7114134,19.999937 C10.7114134,19.1715043 11.3829908,18.4999269 12.2114235,18.4999269 C13.0398562,18.4999269 13.7114336,19.1715043 13.7114336,19.999937 C13.7114336,20.8283697 13.0398562,21.4999471 12.2114235,21.4999471 Z" id="Shape"></path>
                <path d="M19.7114848,17.4999202 C19.7175168,13.5124614 17.2255682,9.94825126 13.478432,8.58486036 C12.6317012,9.48783481 11.4490276,10.0001273 10.2111601,10.0001273 C8.97329257,10.0001273 7.79061894,9.48783481 6.94388812,8.58486036 C3.19892654,9.95099205 0.708323794,13.513563 0.711343523,17.4999202 C0.711343523,22.5049538 4.6178725,25.9999773 10.2114101,25.9999773 C15.8049476,25.9999773 19.7114848,22.5049538 19.7114848,17.4999202 Z M4.71137313,13.749895 C4.71137313,13.0595345 5.27102095,12.4998866 5.96138152,12.4998866 C6.6517421,12.4998866 7.21138992,13.0595345 7.21138992,13.749895 C7.21138992,14.4402556 6.6517421,14.9999034 5.96138152,14.9999034 C5.27102095,14.9999034 4.71137313,14.4402556 4.71137313,13.749895 L4.71137313,13.749895 Z M10.2114101,23.9999639 C7.45439155,23.9999639 5.21137649,22.3179526 5.21137649,20.2499387 C5.21137649,18.1819248 7.45439155,16.4999135 10.2114101,16.4999135 C12.9684286,16.4999135 15.2114436,18.1819248 15.2114436,20.2499387 C15.2114436,22.3179526 12.9684286,23.9999639 10.2114101,23.9999639 Z M14.4614386,14.9999034 C13.771078,14.9999034 13.2114302,14.4402556 13.2114302,13.749895 C13.2114302,13.0595345 13.771078,12.4998866 14.4614386,12.4998866 C15.1517992,12.4998866 15.711447,13.0595345 15.711447,13.749895 C15.711447,14.4402556 15.1517992,14.9999034 14.4614386,14.9999034 Z" id="Shape"></path>
                <circle id="Oval" cx="5.96138152" cy="13.749895" r="1"></circle>
                <circle id="Oval" cx="12.2114235" cy="19.999937" r="1"></circle>
                <circle id="Oval" cx="8.21139663" cy="19.999937" r="1"></circle>
                <path d="M7.84489417,26.7809825 C6.70754574,26.5745893 5.60955735,26.1912719 4.59087232,25.6449749 L4.84937406,26.8114828 C4.99124347,27.4563849 5.53483263,27.9348768 6.19252234,27.9937829 C6.85021205,28.052689 7.4701797,27.6784113 7.72439336,27.0689845 L7.84489417,26.7809825 Z" id="Path"></path>
                <path d="M11.2114134,6.499843 C11.2114134,6.22370213 10.9875577,5.999843 10.7114134,5.999843 L10.7114134,6.999843 C10.9875577,6.999843 11.2114134,6.77599059 11.2114134,6.499843 Z" id="Path"></path>
                <path d="M3.54936533,9.38686574 C3.07286213,7.9208559 1.62935244,7.5933537 1.00234822,7.52085321 C0.555845227,8.41535922 -0.707663258,11.3338788 0.526345029,13.4373929 C1.18828132,11.8606996 2.22616785,10.4700416 3.54936533,9.38686574 L3.54936533,9.38686574 Z" id="Path"></path>
                <path d="M10.2114101,8.99986315 C12.1444197,8.99986315 13.7114336,7.43284925 13.7114336,5.49983964 C13.7114336,3.56683004 12.1444197,1.99981614 10.2114101,1.99981614 C8.27840046,1.99981614 6.71138656,3.56683004 6.71138656,5.49983964 C6.71359089,7.43193545 8.27931426,8.99765881 10.2114101,8.99986315 L10.2114101,8.99986315 Z M9.71140671,5.999843 C8.88297403,6.00260443 8.20915806,5.33326564 8.20638811,4.50483296 C8.20363518,3.67640028 8.87297396,3.00258431 9.70140664,2.99982286 L9.71140671,2.48981943 L10.7114134,2.50981956 L10.7019134,2.99982286 L10.7114134,2.99982286 C11.5398461,2.99982286 12.2114235,3.67140024 12.2114235,4.49983293 L11.2114168,4.49983293 C11.2114202,4.22466208 10.9890808,4.00120542 10.7139134,3.99982957 L10.7139134,4.99983629 C11.5423461,4.99983629 12.2139235,5.67141367 12.2139235,6.49984636 C12.2139235,7.32827905 11.5423461,7.99985643 10.7139134,7.99985643 L10.7139134,8.49985979 L9.71390672,8.49985979 L9.71390672,7.99985643 L9.71390672,7.99985643 C8.88547404,7.99985643 8.21389665,7.32827905 8.21389665,6.49984636 L9.21390337,6.49984636 C9.21390337,6.77599059 9.43776249,6.99984972 9.71390672,6.99984972 L9.71390672,6.99984972 L9.71390672,5.999843 L9.71140671,5.999843 Z" id="Shape"></path>
                <path d="M19.4209719,7.52035321 C18.7959677,7.5928537 17.351458,7.9203559 16.8744548,9.38436573 C18.1976114,10.4672613 19.2353593,11.8577919 19.8969751,13.4343929 C21.1294834,11.3188787 19.8674749,8.4118592 19.4209719,7.52035321 Z" id="Path"></path>
                <path d="M9.71390337,3.99982957 L9.71390337,3.99982957 C9.43776249,3.99982957 9.21390337,4.2236887 9.21390337,4.49982957 C9.21390337,4.77597716 9.43776249,4.99982957 9.71390337,4.99982957 L9.71390337,4.99982957 L9.71390337,3.99982957 Z" id="Path"></path>
                <path d="M10.2114101,0.999809425 C11.4948311,1.00053709 12.716423,1.55117267 13.5669326,2.51231958 C13.129888,1.02302632 11.7635062,0 10.2114101,0 C8.65931394,0 7.2929321,1.02302632 6.85588753,2.51231958 C7.70639717,1.55117267 8.92798905,1.00053709 10.2114101,0.999809425 Z" id="Path"></path>
            </g>
        </g>
    </g>
</svg>